<svg width="208" height="35" viewBox="0 0 208 35" fill="none" xmlns="http://www.w3.org/2000/svg">
<path d="M8.39302 34.18C7.50502 34.18 6.86902 33.988 6.48502 33.604C6.10102 33.196 5.90902 32.44 5.90902 31.336C5.90902 30.592 5.98102 29.644 6.12502 28.492C6.29302 27.316 6.55702 25.708 6.91702 23.668C7.54102 19.9 8.03302 16.636 8.39302 13.876C8.60902 12.148 8.71702 10.708 8.71702 9.556C8.71702 8.476 8.32102 7.936 7.52902 7.936C6.90502 7.936 6.14902 8.26 5.26102 8.908C4.39702 9.532 3.43702 10.54 2.38102 11.932C2.04502 12.388 1.67302 12.616 1.26502 12.616C0.929016 12.616 0.629016 12.46 0.365016 12.148C0.125016 11.812 0.00501562 11.44 0.00501562 11.032C0.00501562 10.648 0.0770156 10.264 0.221016 9.88C0.389016 9.472 0.653016 9.016 1.01302 8.512C2.16502 6.904 3.44902 5.668 4.86502 4.804C6.28102 3.916 7.69702 3.472 9.11302 3.472C10.433 3.472 11.441 3.892 12.137 4.732C12.857 5.572 13.217 6.796 13.217 8.404C13.217 9.052 13.157 9.82 13.037 10.708C12.917 11.572 12.809 12.28 12.713 12.832C12.617 13.384 12.545 13.768 12.497 13.984C13.865 10.072 15.401 7.348 17.105 5.812C18.809 4.252 20.681 3.472 22.721 3.472C24.281 3.472 25.505 4.024 26.393 5.128C27.305 6.232 27.761 7.792 27.761 9.808C27.761 10.6 27.653 11.584 27.437 12.76C28.637 9.448 30.041 7.072 31.649 5.632C33.257 4.192 35.105 3.472 37.193 3.472C38.873 3.472 40.157 4.012 41.045 5.092C41.957 6.172 42.413 7.684 42.413 9.628C42.413 10.684 42.257 11.968 41.945 13.48L39.749 23.776C39.509 24.976 39.389 26.008 39.389 26.872C39.389 27.88 39.617 28.636 40.073 29.14C40.553 29.644 41.213 29.896 42.053 29.896C42.845 29.896 43.613 29.632 44.357 29.104C45.125 28.576 46.025 27.7 47.057 26.476C47.345 26.14 47.669 25.972 48.029 25.972C48.341 25.972 48.581 26.116 48.749 26.404C48.941 26.692 49.037 27.088 49.037 27.592C49.037 28.528 48.809 29.272 48.353 29.824C47.105 31.336 45.869 32.44 44.645 33.136C43.421 33.832 42.137 34.18 40.793 34.18C38.753 34.18 37.157 33.58 36.005 32.38C34.853 31.156 34.277 29.524 34.277 27.484C34.277 26.068 34.565 24.016 35.141 21.328L36.581 14.74C36.629 14.524 36.713 14.14 36.833 13.588C36.953 13.036 37.049 12.52 37.121 12.04C37.193 11.536 37.229 11.044 37.229 10.564C37.229 9.724 37.061 9.1 36.725 8.692C36.413 8.26 35.957 8.044 35.357 8.044C34.229 8.044 33.041 8.776 31.793 10.24C30.569 11.68 29.393 14.08 28.265 17.44C27.161 20.8 26.261 25.168 25.565 30.544C25.397 31.984 25.097 32.956 24.665 33.46C24.257 33.94 23.585 34.18 22.649 34.18C21.833 34.18 21.233 33.988 20.849 33.604C20.489 33.22 20.309 32.5 20.309 31.444C20.309 30.46 20.441 29.176 20.705 27.592C20.969 25.984 21.305 24.1 21.713 21.94C22.817 16.132 23.369 12.388 23.369 10.708C23.369 9.796 23.189 9.124 22.829 8.692C22.493 8.26 21.977 8.044 21.281 8.044C20.105 8.044 18.893 8.716 17.645 10.06C16.397 11.38 15.173 13.744 13.973 17.152C12.797 20.536 11.813 25.12 11.021 30.904C10.853 32.128 10.601 32.98 10.265 33.46C9.95302 33.94 9.32902 34.18 8.39302 34.18ZM53.3522 14.848C52.3442 14.848 51.5882 14.62 51.0842 14.164C50.5802 13.684 50.3282 13.024 50.3282 12.184C50.3282 11.344 50.6522 10.648 51.3002 10.096C51.9722 9.52 52.8002 9.232 53.7842 9.232C54.6722 9.232 55.3922 9.448 55.9442 9.88C56.4962 10.312 56.7722 10.924 56.7722 11.716C56.7722 12.676 56.4602 13.444 55.8362 14.02C55.2122 14.572 54.3842 14.848 53.3522 14.848ZM53.0642 34.18C51.5042 34.18 50.3642 33.628 49.6442 32.524C48.9482 31.42 48.6002 29.956 48.6002 28.132C48.6002 27.052 48.7322 25.672 48.9962 23.992C49.2842 22.288 49.6442 20.704 50.0762 19.24C50.2922 18.472 50.5802 17.944 50.9402 17.656C51.3002 17.368 51.8762 17.224 52.6682 17.224C53.8922 17.224 54.5042 17.632 54.5042 18.448C54.5042 19.048 54.2762 20.44 53.8202 22.624C53.2442 25.264 52.9562 27.052 52.9562 27.988C52.9562 28.708 53.0522 29.26 53.2442 29.644C53.4362 30.028 53.7602 30.22 54.2162 30.22C54.6482 30.22 55.1882 29.92 55.8362 29.32C56.4842 28.72 57.3482 27.772 58.4282 26.476C58.7162 26.14 59.0402 25.972 59.4002 25.972C59.7122 25.972 59.9522 26.116 60.1202 26.404C60.3122 26.692 60.4082 27.088 60.4082 27.592C60.4082 28.552 60.1802 29.296 59.7242 29.824C57.3482 32.728 55.1282 34.18 53.0642 34.18ZM62.5516 34.18C61.6396 34.18 60.9916 33.7 60.6076 32.74C60.2476 31.78 60.0676 30.244 60.0676 28.132C60.0676 25.012 60.5116 22.048 61.3996 19.24C61.6156 18.544 61.9636 18.04 62.4436 17.728C62.9476 17.392 63.6436 17.224 64.5316 17.224C65.0116 17.224 65.3476 17.284 65.5396 17.404C65.7316 17.524 65.8276 17.752 65.8276 18.088C65.8276 18.472 65.6476 19.336 65.2876 20.68C65.0476 21.64 64.8556 22.48 64.7116 23.2C64.5676 23.92 64.4476 24.808 64.3516 25.864C65.1436 23.8 66.0316 22.12 67.0156 20.824C67.9996 19.528 68.9596 18.604 69.8956 18.052C70.8556 17.5 71.7316 17.224 72.5236 17.224C74.0836 17.224 74.8636 18.004 74.8636 19.564C74.8636 20.5 74.5996 22.192 74.0716 24.64C73.6156 26.728 73.3876 28.108 73.3876 28.78C73.3876 29.74 73.7356 30.22 74.4316 30.22C74.9116 30.22 75.4756 29.932 76.1236 29.356C76.7956 28.756 77.6836 27.796 78.7876 26.476C79.0756 26.14 79.3996 25.972 79.7596 25.972C80.0716 25.972 80.3116 26.116 80.4796 26.404C80.6716 26.692 80.7676 27.088 80.7676 27.592C80.7676 28.552 80.5396 29.296 80.0836 29.824C79.0516 31.096 77.9356 32.14 76.7356 32.956C75.5596 33.772 74.2156 34.18 72.7036 34.18C71.4796 34.18 70.5556 33.832 69.9316 33.136C69.3076 32.416 68.9956 31.384 68.9956 30.04C68.9956 29.368 69.1636 28.168 69.4996 26.44C69.8116 24.928 69.9676 23.884 69.9676 23.308C69.9676 22.924 69.8356 22.732 69.5716 22.732C69.2596 22.732 68.8156 23.14 68.2396 23.956C67.6876 24.748 67.1116 25.804 66.5116 27.124C65.9356 28.444 65.4676 29.836 65.1076 31.3C64.8436 32.428 64.5316 33.196 64.1716 33.604C63.8356 33.988 63.2956 34.18 62.5516 34.18ZM85.323 14.848C84.315 14.848 83.559 14.62 83.055 14.164C82.551 13.684 82.299 13.024 82.299 12.184C82.299 11.344 82.623 10.648 83.271 10.096C83.943 9.52 84.771 9.232 85.755 9.232C86.643 9.232 87.363 9.448 87.915 9.88C88.467 10.312 88.743 10.924 88.743 11.716C88.743 12.676 88.431 13.444 87.807 14.02C87.183 14.572 86.355 14.848 85.323 14.848ZM81.867 34.18C81.099 34.18 80.571 34.024 80.283 33.712C79.995 33.4 79.851 32.908 79.851 32.236C79.851 32.044 79.875 31.708 79.923 31.228C80.307 26.836 80.943 22.84 81.831 19.24C82.023 18.496 82.335 17.98 82.767 17.692C83.223 17.38 83.943 17.224 84.927 17.224C85.959 17.224 86.475 17.644 86.475 18.484C86.475 18.604 86.451 18.832 86.403 19.168C85.323 24.304 84.675 28.612 84.459 32.092C84.411 32.86 84.183 33.4 83.775 33.712C83.367 34.024 82.731 34.18 81.867 34.18ZM131.411 4.12C132.155 4.264 132.707 4.516 133.067 4.876C133.451 5.236 133.643 5.656 133.643 6.136C133.643 6.928 133.415 7.504 132.959 7.864C132.527 8.224 131.831 8.368 130.871 8.296C128.711 8.128 127.019 8.02 125.795 7.972C124.595 7.9 123.011 7.852 121.043 7.828C120.155 12.244 119.339 16.684 118.595 21.148C118.331 22.78 118.055 24.676 117.767 26.836C117.479 28.972 117.287 30.7 117.191 32.02C117.143 32.716 116.855 33.256 116.327 33.64C115.799 34 115.163 34.18 114.419 34.18C113.627 34.18 113.015 33.988 112.583 33.604C112.151 33.22 111.935 32.716 111.935 32.092C111.935 31.516 112.019 30.568 112.187 29.248C112.379 27.904 112.595 26.5 112.835 25.036C113.099 23.572 113.303 22.3 113.447 21.22C113.711 19.396 114.011 17.584 114.347 15.784C114.683 13.984 115.019 12.28 115.355 10.672C115.427 10.312 115.511 9.904 115.607 9.448C115.703 8.968 115.811 8.44 115.931 7.864C113.579 7.936 111.731 8.128 110.387 8.44C109.043 8.752 108.083 9.196 107.507 9.772C106.955 10.324 106.679 11.044 106.679 11.932C106.679 12.748 106.919 13.528 107.399 14.272C107.495 14.44 107.543 14.62 107.543 14.812C107.543 15.268 107.267 15.7 106.715 16.108C106.187 16.492 105.635 16.684 105.059 16.684C104.651 16.684 104.315 16.564 104.051 16.324C103.571 15.916 103.175 15.34 102.863 14.596C102.551 13.828 102.395 12.964 102.395 12.004C102.395 9.964 103.055 8.332 104.375 7.108C105.719 5.86 107.747 4.948 110.459 4.372C113.195 3.796 116.699 3.508 120.971 3.508C123.611 3.508 125.711 3.556 127.271 3.652C128.855 3.748 130.235 3.904 131.411 4.12ZM131.93 34.18C131.018 34.18 130.37 33.7 129.986 32.74C129.626 31.78 129.446 30.244 129.446 28.132C129.446 25.012 129.89 22.048 130.778 19.24C130.994 18.544 131.342 18.04 131.822 17.728C132.326 17.392 133.022 17.224 133.91 17.224C134.39 17.224 134.726 17.284 134.918 17.404C135.11 17.524 135.206 17.752 135.206 18.088C135.206 18.472 135.026 19.336 134.666 20.68C134.426 21.64 134.234 22.48 134.09 23.2C133.946 23.92 133.826 24.808 133.73 25.864C134.522 23.8 135.41 22.12 136.394 20.824C137.378 19.528 138.338 18.604 139.274 18.052C140.234 17.5 141.11 17.224 141.902 17.224C143.462 17.224 144.242 18.004 144.242 19.564C144.242 19.876 144.134 20.632 143.918 21.832C143.726 22.792 143.63 23.392 143.63 23.632C143.63 24.472 143.93 24.892 144.53 24.892C145.202 24.892 146.066 24.364 147.122 23.308C147.434 22.996 147.758 22.84 148.094 22.84C148.406 22.84 148.646 22.984 148.814 23.272C149.006 23.536 149.102 23.896 149.102 24.352C149.102 25.24 148.862 25.936 148.382 26.44C147.71 27.136 146.918 27.736 146.006 28.24C145.118 28.72 144.17 28.96 143.162 28.96C141.89 28.96 140.918 28.636 140.246 27.988C139.598 27.34 139.274 26.464 139.274 25.36C139.274 25 139.31 24.64 139.382 24.28C139.43 23.8 139.454 23.476 139.454 23.308C139.454 22.924 139.322 22.732 139.058 22.732C138.698 22.732 138.218 23.14 137.618 23.956C137.042 24.748 136.466 25.804 135.89 27.124C135.314 28.444 134.846 29.836 134.486 31.3C134.222 32.428 133.91 33.196 133.55 33.604C133.214 33.988 132.674 34.18 131.93 34.18ZM164.313 25.972C164.625 25.972 164.865 26.116 165.033 26.404C165.225 26.692 165.321 27.088 165.321 27.592C165.321 28.552 165.093 29.296 164.637 29.824C163.749 30.904 162.489 31.9 160.857 32.812C159.249 33.724 157.521 34.18 155.673 34.18C153.153 34.18 151.197 33.496 149.805 32.128C148.413 30.76 147.717 28.888 147.717 26.512C147.717 24.856 148.065 23.32 148.761 21.904C149.457 20.464 150.417 19.324 151.641 18.484C152.889 17.644 154.293 17.224 155.853 17.224C157.245 17.224 158.361 17.644 159.201 18.484C160.041 19.3 160.461 20.416 160.461 21.832C160.461 23.488 159.861 24.916 158.661 26.116C157.485 27.292 155.481 28.228 152.649 28.924C153.249 30.028 154.389 30.58 156.069 30.58C157.149 30.58 158.373 30.208 159.741 29.464C161.133 28.696 162.333 27.7 163.341 26.476C163.629 26.14 163.953 25.972 164.313 25.972ZM155.241 20.752C154.353 20.752 153.597 21.268 152.973 22.3C152.373 23.332 152.073 24.58 152.073 26.044V26.116C153.489 25.78 154.605 25.276 155.421 24.604C156.237 23.932 156.645 23.152 156.645 22.264C156.645 21.808 156.513 21.448 156.249 21.184C156.009 20.896 155.673 20.752 155.241 20.752ZM178.534 25.972C178.846 25.972 179.086 26.116 179.254 26.404C179.446 26.692 179.542 27.088 179.542 27.592C179.542 28.552 179.314 29.296 178.858 29.824C177.826 31.096 176.698 32.14 175.474 32.956C174.274 33.772 172.906 34.18 171.37 34.18C169.258 34.18 167.686 33.22 166.654 31.3C165.646 29.38 165.142 26.896 165.142 23.848C165.142 20.92 165.514 17.584 166.258 13.84C167.026 10.096 168.142 6.88 169.606 4.192C171.094 1.504 172.858 0.159998 174.898 0.159998C176.05 0.159998 176.95 0.699998 177.598 1.78C178.27 2.836 178.606 4.36 178.606 6.352C178.606 9.208 177.814 12.52 176.23 16.288C174.646 20.056 172.498 23.788 169.786 27.484C169.954 28.468 170.23 29.176 170.614 29.608C170.998 30.016 171.502 30.22 172.126 30.22C173.11 30.22 173.974 29.944 174.718 29.392C175.462 28.816 176.41 27.844 177.562 26.476C177.85 26.14 178.174 25.972 178.534 25.972ZM174.106 3.724C173.554 3.724 172.93 4.72 172.234 6.712C171.538 8.704 170.926 11.176 170.398 14.128C169.87 17.08 169.582 19.912 169.534 22.624C171.238 19.816 172.594 17.008 173.602 14.2C174.61 11.368 175.114 8.788 175.114 6.46C175.114 4.636 174.778 3.724 174.106 3.724ZM192.776 25.972C193.088 25.972 193.328 26.116 193.496 26.404C193.688 26.692 193.784 27.088 193.784 27.592C193.784 28.552 193.556 29.296 193.1 29.824C192.068 31.096 190.94 32.14 189.716 32.956C188.516 33.772 187.148 34.18 185.612 34.18C183.5 34.18 181.928 33.22 180.896 31.3C179.888 29.38 179.384 26.896 179.384 23.848C179.384 20.92 179.756 17.584 180.5 13.84C181.268 10.096 182.384 6.88 183.848 4.192C185.336 1.504 187.1 0.159998 189.14 0.159998C190.292 0.159998 191.192 0.699998 191.84 1.78C192.512 2.836 192.848 4.36 192.848 6.352C192.848 9.208 192.056 12.52 190.472 16.288C188.888 20.056 186.74 23.788 184.028 27.484C184.196 28.468 184.472 29.176 184.856 29.608C185.24 30.016 185.744 30.22 186.368 30.22C187.352 30.22 188.216 29.944 188.96 29.392C189.704 28.816 190.652 27.844 191.804 26.476C192.092 26.14 192.416 25.972 192.776 25.972ZM188.348 3.724C187.796 3.724 187.172 4.72 186.476 6.712C185.78 8.704 185.168 11.176 184.64 14.128C184.112 17.08 183.824 19.912 183.776 22.624C185.48 19.816 186.836 17.008 187.844 14.2C188.852 11.368 189.356 8.788 189.356 6.46C189.356 4.636 189.02 3.724 188.348 3.724ZM199.458 34.18C198.042 34.18 196.83 33.832 195.822 33.136C194.838 32.416 194.094 31.48 193.59 30.328C193.086 29.176 192.834 27.94 192.834 26.62C192.834 24.796 193.17 23.176 193.842 21.76C194.538 20.32 195.474 19.204 196.65 18.412C197.826 17.596 199.146 17.188 200.61 17.188C202.026 17.188 203.238 17.548 204.246 18.268C205.254 18.964 206.01 19.888 206.514 21.04C207.018 22.192 207.27 23.428 207.27 24.748C207.27 26.572 206.922 28.204 206.226 29.644C205.53 31.06 204.582 32.176 203.382 32.992C202.206 33.784 200.898 34.18 199.458 34.18ZM199.854 30.292C200.67 30.292 201.354 29.848 201.906 28.96C202.482 28.072 202.77 26.776 202.77 25.072C202.77 23.752 202.53 22.756 202.05 22.084C201.57 21.412 200.994 21.076 200.322 21.076C199.458 21.076 198.738 21.52 198.162 22.408C197.61 23.272 197.334 24.568 197.334 26.296C197.334 27.664 197.574 28.672 198.054 29.32C198.534 29.968 199.134 30.292 199.854 30.292Z" fill="#EDEDED"/>
</svg>
