<svg width="15" height="15" viewBox="0 0 15 15" fill="none" xmlns="http://www.w3.org/2000/svg">
<path d="M13.5938 15H1.40625C0.62959 15 0 14.2805 0 13.3929V1.60714C0 0.719531 0.62959 0 1.40625 0H13.5938C14.3704 0 15 0.719531 15 1.60714V13.3929C15 14.2805 14.3704 15 13.5938 15ZM3.75 2.94643C3.1028 2.94643 2.57812 3.54606 2.57812 4.28571C2.57812 5.02537 3.1028 5.625 3.75 5.625C4.3972 5.625 4.92188 5.02537 4.92188 4.28571C4.92188 3.54606 4.3972 2.94643 3.75 2.94643ZM3.75 6.16071C3.1028 6.16071 2.57812 6.76035 2.57812 7.5C2.57812 8.23965 3.1028 8.83929 3.75 8.83929C4.3972 8.83929 4.92188 8.23965 4.92188 7.5C4.92188 6.76035 4.3972 6.16071 3.75 6.16071ZM3.75 9.375C3.1028 9.375 2.57812 9.97463 2.57812 10.7143C2.57812 11.4539 3.1028 12.0536 3.75 12.0536C4.3972 12.0536 4.92188 11.4539 4.92188 10.7143C4.92188 9.97463 4.3972 9.375 3.75 9.375ZM12.1875 4.82143V3.75C12.1875 3.52811 12.0301 3.34821 11.8359 3.34821H5.97656C5.78241 3.34821 5.625 3.52811 5.625 3.75V4.82143C5.625 5.04331 5.78241 5.22321 5.97656 5.22321H11.8359C12.0301 5.22321 12.1875 5.04331 12.1875 4.82143ZM12.1875 8.03571V6.96429C12.1875 6.7424 12.0301 6.5625 11.8359 6.5625H5.97656C5.78241 6.5625 5.625 6.7424 5.625 6.96429V8.03571C5.625 8.2576 5.78241 8.4375 5.97656 8.4375H11.8359C12.0301 8.4375 12.1875 8.2576 12.1875 8.03571ZM12.1875 11.25V10.1786C12.1875 9.95669 12.0301 9.77679 11.8359 9.77679H5.97656C5.78241 9.77679 5.625 9.95669 5.625 10.1786V11.25C5.625 11.4719 5.78241 11.6518 5.97656 11.6518H11.8359C12.0301 11.6518 12.1875 11.4719 12.1875 11.25Z" fill="#5A5A5A"/>
</svg>
