<svg width="10" height="11" viewBox="0 0 10 11" fill="none" xmlns="http://www.w3.org/2000/svg">
<path d="M5 5.5C6.57812 5.5 7.85714 4.26895 7.85714 2.75C7.85714 1.23105 6.57812 0 5 0C3.42188 0 2.14286 1.23105 2.14286 2.75C2.14286 4.26895 3.42188 5.5 5 5.5ZM7 6.1875H6.62723C6.1317 6.40664 5.58036 6.53125 5 6.53125C4.41964 6.53125 3.87054 6.40664 3.37277 6.1875H3C1.34375 6.1875 0 7.48086 0 9.075V9.96875C0 10.5381 0.479911 11 1.07143 11H8.92857C9.52009 11 10 10.5381 10 9.96875V9.075C10 7.48086 8.65625 6.1875 7 6.1875Z" fill="#5A5A5A"/>
</svg>
