<svg width="8" height="8" viewBox="0 0 8 8" fill="none" xmlns="http://www.w3.org/2000/svg">
<path d="M7.14286 8H0.857143C0.38375 8 0 7.61625 0 7.14286V0.857143C0 0.38375 0.38375 0 0.857143 0H7.14286C7.61625 0 8 0.38375 8 0.857143V7.14286C8 7.61625 7.61625 8 7.14286 8ZM3.48775 6.24895L6.77346 2.96323C6.88504 2.85166 6.88504 2.67075 6.77346 2.55918L6.36941 2.15513C6.25784 2.04355 6.07693 2.04354 5.96534 2.15513L3.28571 4.83473L2.03466 3.58368C1.92309 3.47211 1.74218 3.47211 1.63059 3.58368L1.22654 3.98773C1.11496 4.0993 1.11496 4.28021 1.22654 4.39179L3.08368 6.24893C3.19527 6.36054 3.37616 6.36054 3.48775 6.24895Z" fill="#787878"/>
</svg>
